<?xml version="1.0" encoding="UTF-8" standalone="no"?>
<!-- Created with Inkscape (http://www.inkscape.org/) -->

<svg
   width="210mm"
   height="297mm"
   viewBox="0 0 210 297"
   version="1.1"
   id="svg5"
   xml:space="preserve"
   inkscape:version="1.2.1 (9c6d41e410, 2022-07-14)"
   sodipodi:docname="settings_thicker.svg"
   xmlns:inkscape="http://www.inkscape.org/namespaces/inkscape"
   xmlns:sodipodi="http://sodipodi.sourceforge.net/DTD/sodipodi-0.dtd"
   xmlns="http://www.w3.org/2000/svg"
   xmlns:svg="http://www.w3.org/2000/svg"><sodipodi:namedview
     id="namedview7"
     pagecolor="#242424"
     bordercolor="#000000"
     borderopacity="0.25"
     inkscape:showpageshadow="2"
     inkscape:pageopacity="0"
     inkscape:pagecheckerboard="0"
     inkscape:deskcolor="#d1d1d1"
     inkscape:document-units="mm"
     showgrid="false"
     inkscape:zoom="0.70710678"
     inkscape:cx="248.90159"
     inkscape:cy="564.27121"
     inkscape:window-width="1920"
     inkscape:window-height="1009"
     inkscape:window-x="-8"
     inkscape:window-y="690"
     inkscape:window-maximized="1"
     inkscape:current-layer="layer1" /><defs
     id="defs2" /><g
     inkscape:label="Ebene 1"
     inkscape:groupmode="layer"
     id="layer1"><path
       d="m 92.61676,221.20973 v -17.06646 c -8.954175,-1.38265 -15.831772,-9.14221 -15.831772,-18.47788 0,-9.33567 6.877597,-17.09455 15.831772,-18.47792 V 63.878811 c 0,-1.582678 4.482767,-2.865975 6.066061,-2.865975 1.582679,0 6.131019,1.28362 6.131019,2.865975 V 167.18747 c 8.95417,1.38363 15.83132,9.14225 15.83132,18.47792 0,9.33567 -6.87715,17.09526 -15.83132,18.47788 v 17.06646 c 0,1.58268 -4.54834,2.86598 -6.131019,2.86598 -1.583326,9e-5 -6.066061,-1.2833 -6.066061,-2.86598 z m 15.84048,-35.54434 c 0,-6.16416 -1.10496,-8.09704 -6.87886,-9.40616 -0.92307,-0.20714 -1.881091,-0.32398 -2.866301,-0.32398 -0.985209,0 -1.943231,0.11651 -2.865975,0.32398 -5.774706,1.30919 -6.873001,3.242 -6.873001,9.40616 0,6.16494 1.098166,8.08995 6.873001,9.39833 0.922744,0.21037 1.880766,0.32365 2.865975,0.32365 0.98521,0 1.943231,-0.11328 2.866301,-0.32365 5.77377,-1.30822 6.87886,-3.23333 6.87886,-9.39833 z"
       fill="#333333"
       id="path182-5"
       style="overflow:visible;fill:#ffffff;fill-opacity:1;stroke-width:0.0906771"
       sodipodi:nodetypes="scscssscscsssscscscscs" /><path
       d="M 40.831771,63.863502 V 80.929957 C 31.877597,82.312617 25,90.072176 25,99.407845 c 0,9.335665 6.877597,17.094545 15.831771,18.477915 v 103.30866 c 0,1.58268 4.482768,2.86598 6.066062,2.86598 1.582678,0 6.131018,-1.28362 6.131018,-2.86598 V 117.88576 c 8.954175,-1.3833 15.831319,-9.14225 15.831319,-18.477915 0,-9.335669 -6.877144,-17.095261 -15.831319,-18.477888 V 63.863502 c 0,-1.582678 -4.54834,-2.865975 -6.131018,-2.865975 -1.583326,-9.7e-5 -6.066062,1.283297 -6.066062,2.865975 z m 15.840478,35.544343 c 0,6.164165 -1.104962,8.097035 -6.878859,9.406165 -0.923067,0.20714 -1.88109,0.32397 -2.866299,0.32397 -0.985209,0 -1.943232,-0.11651 -2.865975,-0.32397 -5.774706,-1.30919 -6.873001,-3.242 -6.873001,-9.406165 0,-6.164939 1.098165,-8.089948 6.873001,-9.398328 0.922743,-0.210377 1.880766,-0.323657 2.865975,-0.323657 0.985209,0 1.943232,0.11328 2.866299,0.323657 5.773767,1.308218 6.878859,3.233325 6.878859,9.398328 z"
       fill="#333333"
       id="path182-8"
       style="overflow:visible;fill:#ffffff;fill-opacity:1;stroke-width:0.0906771"
       sodipodi:nodetypes="scscssscscsssscscscscs" /><path
       d="m 144.40175,63.878811 v 17.066455 c -8.95418,1.38266 -15.83177,9.142219 -15.83177,18.477888 0,9.335666 6.87759,17.094546 15.83177,18.477916 v 103.30866 c 0,1.58268 4.48277,2.86598 6.06606,2.86598 1.58268,0 6.13102,-1.28363 6.13102,-2.86598 V 117.90107 c 8.95417,-1.3833 15.83132,-9.14225 15.83132,-18.477916 0,-9.335669 -6.87715,-17.095261 -15.83132,-18.477888 V 63.878811 c 0,-1.582678 -4.54834,-2.865975 -6.13102,-2.865975 -1.58333,-9.7e-5 -6.06606,1.283297 -6.06606,2.865975 z m 15.84048,35.544343 c 0,6.164156 -1.10497,8.097036 -6.87886,9.406156 -0.92307,0.20714 -1.88109,0.32398 -2.8663,0.32398 -0.98521,0 -1.94323,-0.11651 -2.86598,-0.32398 -5.7747,-1.30919 -6.873,-3.242 -6.873,-9.406156 0,-6.164939 1.09817,-8.089948 6.873,-9.398329 0.92275,-0.210376 1.88077,-0.323656 2.86598,-0.323656 0.98521,0 1.94323,0.11328 2.8663,0.323656 5.77376,1.308219 6.87886,3.233326 6.87886,9.398329 z"
       fill="#333333"
       id="path182-8-3"
       style="overflow:visible;fill:#ffffff;fill-opacity:1;stroke-width:0.0906771"
       sodipodi:nodetypes="scscssscscsssscscscscs" /></g></svg>
